<?xml version="1.0" standalone="no"?>
<!DOCTYPE svg PUBLIC "-//W3C//DTD SVG 20010904//EN"
 "http://www.w3.org/TR/2001/REC-SVG-20010904/DTD/svg10.dtd">
<svg version="1.0" xmlns="http://www.w3.org/2000/svg"
 width="700.000000pt" height="700.000000pt" viewBox="0 0 700.000000 700.000000"
 preserveAspectRatio="xMidYMid meet">
<metadata>
Created by potrace 1.14, written by Peter Selinger 2001-2017
</metadata>
<g transform="translate(0.000000,700.000000) scale(0.100000,-0.100000)"
fill="#000000" stroke="none">
<path d="M3997 5644 c-1 -1 -33 -5 -70 -8 -395 -31 -827 -216 -1407 -602 -176
-117 -356 -245 -431 -307 l-34 -29 30 6 c17 3 75 15 130 26 141 30 137 30 168
35 106 19 208 34 282 40 39 4 81 8 95 11 65 11 379 4 485 -11 33 -5 204 -35
220 -39 6 -2 24 -6 40 -10 134 -34 332 -108 425 -159 19 -10 53 -29 75 -40
125 -68 300 -203 416 -323 132 -137 200 -223 296 -378 50 -81 173 -315 173
-330 0 -3 11 -29 24 -59 37 -79 111 -300 136 -405 12 -51 24 -91 25 -90 3 3 8
38 20 138 2 14 6 69 10 124 4 54 9 115 10 135 26 309 26 860 -1 1041 -21 146
-38 236 -57 315 -59 235 -118 381 -212 525 -47 72 -173 198 -248 249 -100 68
-244 122 -362 136 -54 6 -233 13 -238 9z"/>
<path d="M3110 4767 c-129 -54 -538 -256 -710 -351 -36 -20 -72 -39 -80 -43
-31 -14 -218 -128 -290 -177 -304 -206 -585 -483 -714 -706 -106 -180 -144
-420 -102 -635 38 -193 235 -495 458 -704 133 -123 389 -305 593 -420 50 -27
95 -54 100 -58 22 -18 487 -245 600 -293 66 -28 135 -57 153 -65 18 -8 35 -15
38 -15 8 0 -31 48 -85 105 -54 58 -193 221 -236 280 -16 22 -33 42 -36 45 -6
5 -24 30 -110 153 -135 193 -267 487 -319 707 -6 25 -13 54 -15 65 -8 31 -15
67 -21 105 -3 19 -8 46 -11 60 -3 14 -7 106 -8 205 -4 206 6 315 41 465 9 36
17 75 20 87 8 42 76 229 112 308 122 268 316 546 544 780 59 60 106 110 105
111 -1 1 -13 -3 -27 -9z"/>
<path d="M3717 4584 c-1 -1 -16 -4 -34 -7 -90 -14 -206 -91 -272 -181 -31 -42
-66 -116 -64 -136 1 -3 -3 -13 -9 -23 -5 -10 -9 -55 -10 -100 0 -135 43 -238
142 -335 83 -82 180 -120 306 -120 328 0 540 360 388 659 -57 114 -188 215
-304 235 -29 5 -139 11 -143 8z"/>
<path d="M5497 3832 c-37 -117 -88 -261 -111 -317 -7 -16 -26 -61 -42 -100
-174 -421 -458 -780 -804 -1015 -249 -169 -564 -283 -880 -317 -142 -15 -529
-8 -632 12 -13 3 -43 8 -68 11 -25 3 -52 7 -60 9 -8 2 -28 7 -45 10 -71 12
-146 30 -242 58 -46 14 -83 23 -83 22 0 -20 607 -423 837 -558 98 -57 342
-174 448 -216 61 -24 119 -47 130 -52 25 -11 229 -68 269 -75 16 -3 32 -6 35
-8 3 -2 26 -7 51 -10 25 -4 72 -10 105 -15 103 -15 271 -7 370 18 176 44 341
141 443 259 87 100 137 187 233 397 29 65 88 261 105 350 2 11 6 31 9 45 3 14
7 43 10 65 3 22 7 51 10 64 20 107 29 762 12 961 -4 52 -10 115 -12 140 -4 54
-14 153 -20 195 -2 17 -7 59 -10 95 -4 36 -10 71 -14 77 -4 7 -24 -40 -44
-105z"/>
<path d="M2738 3509 c-363 -53 -523 -496 -271 -753 212 -217 578 -163 722 107
39 72 53 134 52 217 -2 76 -3 83 -20 133 -67 198 -276 326 -483 296z"/>
<path d="M4054 3181 c-200 -66 -324 -247 -309 -451 5 -77 7 -84 28 -134 9 -21
17 -41 17 -44 0 -3 18 -29 41 -59 160 -212 470 -247 661 -75 254 228 163 648
-165 758 -71 24 -207 26 -273 5z"/>
</g>
</svg>
